<?xml version="1.0" encoding="utf-8"?>
<!-- Generator: Adobe Illustrator 19.1.0, SVG Export Plug-In . SVG Version: 6.00 Build 0)  -->
<svg version="1.1" id="Layer_1" xmlns="http://www.w3.org/2000/svg" xmlns:xlink="http://www.w3.org/1999/xlink" x="0px" y="0px"
	 viewBox="0 0 325.6 371.3" style="enable-background:new 0 0 325.6 371.3;" xml:space="preserve">
<style type="text/css">
	.st0{fill:#00ADEE;}
	.st1{fill:#FFFFFF;}
	.st2{fill:#37B34A;}
</style>
<g>
	<path class="st0" d="M105.6,172.5l14.9-81.2c-20.5-4.9-35.4-23.4-35.4-45C85.1,20.8,105.9,0,131.4,0h94.7
		c25.5,0,46.3,20.8,46.3,46.3s-20.8,46.3-46.3,46.3h-65.5L105.6,172.5z M131.4,11C112,11,96.1,26.8,96.1,46.3
		c0,18,13.5,33.1,31.4,35.1l5.9,0.7l-7.7,41.9l29.1-42.3h71.3c19.5,0,35.3-15.8,35.3-35.3S245.6,11,226.1,11H131.4z"/>
</g>
<g>
	<path class="st1" d="M269.7,237.5c-25.2,0-45.7-20.5-45.7-45.7c0-25.2,20.5-45.7,45.7-45.7c25.2,0,45.7,20.5,45.7,45.7
		C315.4,217,294.9,237.5,269.7,237.5z M269.7,160.1c-17.5,0-31.7,14.2-31.7,31.7c0,17.5,14.2,31.7,31.7,31.7
		c17.5,0,31.7-14.2,31.7-31.7C301.4,174.3,287.2,160.1,269.7,160.1z"/>
</g>
<g>
	<polygon class="st1" points="279.7,357 178.8,357 178.8,335.6 265.6,335.6 306,241 325.6,249.4 	"/>
</g>
<g>
	<path class="st1" d="M54,237.5c-25.2,0-45.7-20.5-45.7-45.7c0-25.2,20.5-45.7,45.7-45.7s45.7,20.5,45.7,45.7
		C99.7,217,79.2,237.5,54,237.5z M54,160.1c-17.5,0-31.7,14.2-31.7,31.7c0,17.5,14.2,31.7,31.7,31.7c17.5,0,31.7-14.2,31.7-31.7
		C85.7,174.3,71.5,160.1,54,160.1z"/>
</g>
<g>
	<polygon class="st1" points="134.6,361.2 39.2,361.2 0,248.7 20.2,241.7 54.4,339.8 134.6,339.8 	"/>
</g>
<g>
	<polygon class="st2" points="189.7,301.3 166,364.3 166,364.3 166,364.3 169.2,371.3 176.3,368.1 200,305.1 	"/>
</g>
</svg>
