<?xml version="1.0" encoding="utf-8"?>
<!-- Generator: Adobe Illustrator 19.1.0, SVG Export Plug-In . SVG Version: 6.00 Build 0)  -->
<svg version="1.1" id="Layer_1" xmlns="http://www.w3.org/2000/svg" xmlns:xlink="http://www.w3.org/1999/xlink" x="0px" y="0px"
	 viewBox="-262 146 325.6 371.3" style="enable-background:new -262 146 325.6 371.3;" xml:space="preserve">
<style type="text/css">
	.st0{fill:#00ADEE;}
	.st1{fill:#FF5000;}
	.st2{fill:#37B34A;}
</style>
<g>
	<path class="st0" d="M-156.4,318.5l14.9-81.2c-20.5-4.9-35.4-23.4-35.4-45c0-25.5,20.8-46.3,46.3-46.3h94.7
		c25.5,0,46.3,20.8,46.3,46.3s-20.8,46.3-46.3,46.3h-65.5L-156.4,318.5z M-130.6,157c-19.4,0-35.3,15.8-35.3,35.3
		c0,18,13.5,33.1,31.4,35.1l5.9,0.7l-7.7,41.9l29.1-42.3h71.3c19.5,0,35.3-15.8,35.3-35.3S-16.4,157-35.9,157H-130.6z"/>
</g>
<g>
	<path class="st1" d="M7.7,383.5c-25.2,0-45.7-20.5-45.7-45.7c0-25.2,20.5-45.7,45.7-45.7s45.7,20.5,45.7,45.7
		C53.4,363,32.9,383.5,7.7,383.5z M7.7,306.1c-17.5,0-31.7,14.2-31.7,31.7s14.2,31.7,31.7,31.7s31.7-14.2,31.7-31.7
		C39.4,320.3,25.2,306.1,7.7,306.1z"/>
</g>
<g>
	<polygon class="st1" points="17.7,503 -83.2,503 -83.2,481.6 3.6,481.6 44,387 63.6,395.4 	"/>
</g>
<g>
	<path class="st1" d="M-208,383.5c-25.2,0-45.7-20.5-45.7-45.7c0-25.2,20.5-45.7,45.7-45.7s45.7,20.5,45.7,45.7
		C-162.3,363-182.8,383.5-208,383.5z M-208,306.1c-17.5,0-31.7,14.2-31.7,31.7s14.2,31.7,31.7,31.7s31.7-14.2,31.7-31.7
		S-190.5,306.1-208,306.1z"/>
</g>
<g>
	<polygon class="st1" points="-127.4,507.2 -222.8,507.2 -262,394.7 -241.8,387.7 -207.6,485.8 -127.4,485.8 	"/>
</g>
<g>
	<polygon class="st2" points="-72.3,447.3 -96,510.3 -96,510.3 -96,510.3 -92.8,517.3 -85.7,514.1 -62,451.1 	"/>
</g>
</svg>
